<?xml version="1.0" standalone="no"?>
<!DOCTYPE svg PUBLIC "-//W3C//DTD SVG 20010904//EN"
 "http://www.w3.org/TR/2001/REC-SVG-20010904/DTD/svg10.dtd">
<svg version="1.0" xmlns="http://www.w3.org/2000/svg"
 width="1237.000000pt" height="433.000000pt" viewBox="0 0 1237.000000 433.000000"
 preserveAspectRatio="xMidYMid meet">

<g transform="translate(0.000000,433.000000) scale(0.100000,-0.100000)"
fill="#000000" stroke="none">
<path d="M0 2165 l0 -2165 6185 0 6185 0 0 2165 0 2165 -6185 0 -6185 0 0
-2165z m1375 1320 c231 -132 225 -122 225 -373 l0 -180 -125 -71 c-69 -39
-129 -71 -135 -71 -6 0 -67 32 -136 72 -98 56 -130 69 -143 61 -9 -5 -96 -56
-193 -112 l-178 -103 0 -714 c0 -393 3 -714 8 -714 4 0 90 49 192 108 l185
107 3 152 3 152 123 70 c68 39 128 71 135 71 6 0 67 -32 136 -71 l125 -71 0
-172 c0 -189 -10 -247 -59 -344 -41 -82 -112 -172 -164 -210 -48 -34 -617
-366 -702 -409 -84 -43 -168 -28 -219 40 -20 27 -21 44 -26 270 l-5 242 -128
73 -127 74 0 697 c0 774 -2 752 67 885 24 46 62 96 108 141 62 62 110 93 409
265 186 107 352 200 370 207 68 25 94 18 251 -72z m875 -218 l125 -72 3 -958
c1 -526 5 -957 10 -957 4 0 30 14 57 30 28 16 56 30 63 30 7 0 69 -33 138 -72
l124 -73 0 -150 0 -150 -193 -111 c-248 -144 -253 -147 -304 -146 -67 2 -108
27 -135 80 -22 45 -23 59 -26 328 l-4 280 -121 71 -122 71 -2 863 -3 864 128
72 c70 40 129 73 132 73 3 0 61 -33 130 -73z m6225 -37 c187 -106 190 -109
190 -214 0 -74 -4 -90 -32 -145 -18 -34 -29 -61 -25 -59 4 2 37 20 75 41 l67
39 128 -75 127 -75 0 -152 0 -152 -192 -111 -193 -112 0 -298 0 -299 65 37 66
37 127 -75 127 -75 0 -152 0 -152 -510 -295 c-280 -163 -515 -297 -522 -300
-7 -3 -13 9 -15 34 -3 37 -5 39 -125 108 l-123 70 0 120 1 120 192 110 192
110 3 298 c1 163 0 297 -2 297 -3 0 -32 -16 -66 -36 l-61 -35 -127 73 -127 74
-2 155 -3 154 331 189 c181 104 332 193 335 198 3 4 -2 8 -10 8 -8 0 -30 15
-48 34 -40 40 -74 59 -90 50 -7 -4 -8 -3 -4 4 3 6 -2 16 -13 21 -26 14 -34 14
-25 -1 4 -7 3 -8 -5 -4 -6 4 -9 11 -6 16 3 5 -8 16 -24 25 -36 18 -45 19 -35
3 4 -7 3 -8 -5 -4 -6 4 -9 12 -6 17 4 5 -5 14 -19 20 -73 34 -35 235 64 343
42 46 128 96 164 96 11 0 83 -36 161 -80z m1965 6 l125 -74 0 -152 0 -152
-255 -148 -255 -147 -3 -61 -3 -61 128 74 c70 41 130 75 133 75 3 -1 61 -34
130 -74 l125 -73 0 -153 0 -152 -255 -148 -255 -148 -5 -512 -5 -512 -127 -75
-127 -74 -128 73 -128 74 -5 362 -5 363 -125 72 -125 73 -2 155 -3 154 130 74
130 73 0 232 c0 261 7 303 67 420 68 130 139 189 443 363 146 84 267 153 270
152 3 0 61 -33 130 -73z m-6475 -349 c55 -21 287 -160 316 -189 16 -16 33 -46
39 -67 7 -25 9 -293 8 -777 l-3 -738 -128 -74 -127 -74 -38 22 -37 22 -20 -28
c-61 -86 -131 -146 -264 -222 -236 -138 -258 -144 -339 -108 -58 26 -82 78
-82 178 0 89 11 77 -157 173 l-103 59 0 191 c0 214 7 251 68 370 67 129 139
188 445 364 l267 153 0 54 c0 30 -3 54 -7 54 -3 0 -120 -66 -260 -146 l-253
-146 -127 74 -128 74 -2 155 -3 154 400 230 c220 127 417 235 438 242 46 14
59 14 97 0z m1795 -70 l125 -73 3 -152 c2 -148 2 -152 -20 -165 -13 -8 -117
-70 -233 -137 -115 -67 -198 -119 -184 -116 14 3 41 1 61 -5 48 -13 284 -150
325 -189 49 -45 55 -86 51 -319 -3 -181 -6 -213 -26 -265 -30 -83 -98 -192
-152 -243 -30 -29 -183 -124 -450 -278 -223 -129 -408 -235 -412 -235 -5 0 -8
17 -8 38 l-1 37 -124 70 -125 70 1 120 0 120 229 131 c205 117 226 131 192
130 -101 -2 -155 59 -167 189 l-7 70 -124 70 -124 70 0 145 c0 90 5 164 14
195 29 109 130 268 202 317 42 30 816 478 824 478 3 0 61 -33 130 -73z m1560
0 l125 -73 3 -152 c2 -148 2 -152 -20 -165 -13 -8 -117 -70 -233 -137 -115
-67 -198 -119 -184 -116 14 3 41 1 61 -5 48 -13 284 -150 325 -189 49 -45 55
-86 51 -319 -3 -181 -6 -213 -26 -265 -30 -83 -98 -192 -152 -243 -30 -29
-183 -124 -450 -278 -223 -129 -408 -235 -412 -235 -5 0 -8 17 -8 38 l-1 37
-124 70 -125 70 1 120 0 120 229 131 c205 117 226 131 192 130 -101 -2 -155
59 -167 189 l-7 70 -124 70 -124 70 0 145 c0 90 5 164 14 195 29 109 130 268
202 317 42 30 816 478 824 478 3 0 61 -33 130 -73z m4691 -7 l120 -71 -3 -852
-3 -852 -26 -67 c-36 -92 -101 -190 -165 -246 -31 -28 -213 -139 -448 -274
-217 -126 -397 -228 -400 -228 -3 0 -6 17 -8 38 -3 36 -6 39 -125 107 l-123
70 0 120 0 120 366 210 c201 116 378 216 392 223 26 13 34 9 147 -56 l120 -70
3 65 c2 37 -1 70 -7 76 -5 5 -51 33 -102 62 l-93 53 -27 -19 c-15 -10 -29 -19
-32 -19 -3 0 -52 -27 -109 -61 -201 -119 -243 -131 -323 -93 -59 28 -79 85
-83 244 l-4 135 -122 71 -121 70 -2 364 -3 365 130 73 129 74 130 -74 130 -73
1 -312 c0 -172 3 -313 6 -313 4 0 63 32 131 72 l124 71 42 -23 c23 -13 78 -45
122 -71 l80 -47 3 91 c1 50 1 96 -2 103 -2 6 -59 43 -125 80 l-121 69 0 365 0
365 128 73 c70 39 133 70 140 67 7 -2 67 -36 133 -75z"/>
<path d="M8263 2006 c-40 -22 -73 -43 -73 -46 0 -5 130 -81 151 -88 5 -2 9 37
9 87 0 50 -3 91 -7 90 -5 -1 -41 -20 -80 -43z"/>
<path d="M9688 1627 c-49 -28 -88 -54 -88 -57 1 -11 171 -101 180 -95 11 7 14
205 3 204 -5 0 -47 -23 -95 -52z"/>
<path d="M4028 2382 c-35 -21 -35 -28 2 -47 l30 -16 0 41 c0 22 -1 40 -2 39
-2 0 -15 -8 -30 -17z"/>
<path d="M4026 1660 l-28 -18 31 -16 31 -17 0 36 c0 19 -1 35 -2 34 -2 0 -16
-9 -32 -19z"/>
<path d="M3673 1459 l-123 -71 0 -54 c0 -30 3 -54 6 -54 4 0 62 32 130 71
l124 70 0 55 c0 30 -3 54 -7 54 -5 0 -63 -32 -130 -71z"/>
<path d="M4061 1174 c0 -11 3 -14 6 -6 3 7 2 16 -1 19 -3 4 -6 -2 -5 -13z"/>
<path d="M5120 1760 c0 -27 3 -50 8 -50 4 0 23 13 43 28 l37 28 -39 22 c-21
12 -40 22 -43 22 -4 0 -6 -22 -6 -50z"/>
<path d="M5605 1671 c-3 -5 -1 -12 5 -16 5 -3 10 1 10 9 0 18 -6 21 -15 7z"/>
<path d="M6680 1760 c0 -27 3 -50 8 -50 4 0 23 13 43 28 l37 28 -39 22 c-21
12 -40 22 -43 22 -4 0 -6 -22 -6 -50z"/>
<path d="M7165 1671 c-3 -5 -1 -12 5 -16 5 -3 10 1 10 9 0 18 -6 21 -15 7z"/>
</g>
</svg>
